<svg width="24" height="25" viewBox="0 0 24 25" fill="none" xmlns="http://www.w3.org/2000/svg">
    <path d="M3.17001 7.93994L12 13.0499L20.77 7.96994M12 22.1099V13.0399" stroke="#8A92FF" stroke-width="1.5" stroke-linecap="round" stroke-linejoin="round"/>
    <path d="M21.61 13.33V9.67C21.61 8.29 20.62 6.61 19.41 5.94L14.07 2.98C12.93 2.34 11.07 2.34 9.93001 2.98L4.59001 5.94C3.38001 6.61 2.39001 8.29 2.39001 9.67V15.33C2.39001 16.71 3.38001 18.39 4.59001 19.06L9.93001 22.02C10.5 22.34 11.25 22.5 12 22.5C12.75 22.5 13.5 22.34 14.07 22.02" stroke="#8A92FF" stroke-width="1.5" stroke-linecap="round" stroke-linejoin="round"/>
    <path d="M23 22.5L22 21.5M19.2 21.9C20.0487 21.9 20.8626 21.5629 21.4627 20.9627C22.0629 20.3626 22.4 19.5487 22.4 18.7C22.4 17.8513 22.0629 17.0374 21.4627 16.4373C20.8626 15.8371 20.0487 15.5 19.2 15.5C18.3513 15.5 17.5374 15.8371 16.9373 16.4373C16.3371 17.0374 16 17.8513 16 18.7C16 19.5487 16.3371 20.3626 16.9373 20.9627C17.5374 21.5629 18.3513 21.9 19.2 21.9Z" stroke="#8A92FF" stroke-width="1.5" stroke-linecap="round" stroke-linejoin="round"/>
</svg>
