<svg width="24" height="25" viewBox="0 0 24 25" fill="none" xmlns="http://www.w3.org/2000/svg">
    <path d="M10 1.5H4C2.34 1.5 1 2.84 1 4.5V10.5C1 12.16 2.34 13.5 4 13.5H8.5C8.5 11.02 10.52 9 13 9V4.5C13 2.84 11.66 1.5 10 1.5ZM3.77 4.77C4.54 4.22 5.59 4.21 6.38 4.75C6.72 4.98 6.81 5.45 6.58 5.79C6.35 6.13 5.88 6.22 5.54 5.99C5.4063 5.89636 5.24662 5.84697 5.08339 5.84876C4.92017 5.85056 4.76161 5.90345 4.63 6C4.5 6.09 4.35 6.13 4.2 6.13C3.97 6.13 3.73 6.02 3.59 5.82C3.53284 5.73925 3.49215 5.64803 3.47026 5.55155C3.44837 5.45506 3.4457 5.35521 3.46242 5.2577C3.47913 5.16019 3.5149 5.06693 3.56768 4.98324C3.62046 4.89956 3.68921 4.8271 3.77 4.77ZM9.27 8.74C9.01 9.07 8.54 9.12 8.22 8.86C7.87 8.58 7.45 8.43 7 8.43C6 8.43 5.17 9.19 5.06 10.17H7.16C7.57 10.17 7.91 10.51 7.91 10.92C7.91 11.33 7.57 11.67 7.16 11.67H4.84C4.13 11.67 3.55 11.09 3.55 10.38C3.55 8.48 5.1 6.93 7 6.93C7.78 6.93 8.55 7.2 9.16 7.69C9.48 7.95 9.53 8.42 9.27 8.74ZM10.58 5.79C10.35 6.13 9.88 6.22 9.54 5.99C9.4063 5.89636 9.24662 5.84697 9.08339 5.84876C8.92017 5.85056 8.76161 5.90345 8.63 6C8.5 6.09 8.35 6.13 8.2 6.13C7.97 6.13 7.73 6.02 7.59 5.82C7.53284 5.73925 7.49215 5.64803 7.47026 5.55155C7.44837 5.45506 7.4457 5.35521 7.46242 5.2577C7.47913 5.16019 7.5149 5.06693 7.56768 4.98324C7.62046 4.89956 7.68921 4.8271 7.77 4.77C8.54 4.22 9.59 4.21 10.38 4.75C10.72 4.98 10.81 5.45 10.58 5.79ZM18.22 17.179C18.1848 17.1399 18.1415 17.1089 18.0932 17.0882C18.0449 17.0675 17.9926 17.0575 17.94 17.059H14.06C13.95 17.059 13.85 17.099 13.78 17.179C13.71 17.259 13.67 17.369 13.69 17.469C13.7511 18.0394 14.0207 18.5672 14.447 18.951C14.8733 19.3349 15.4263 19.5478 16 19.549C17.19 19.549 18.18 18.659 18.31 17.469C18.316 17.4171 18.3111 17.3644 18.2956 17.3145C18.2801 17.2646 18.2543 17.2184 18.22 17.179Z" fill="#DB5551"/>
    <path d="M19 10.5H13C11.35 10.5 10 11.85 10 13.5V19.5C10 21.15 11.35 22.5 13 22.5H19C20.65 22.5 22 21.15 22 19.5V13.5C22 11.85 20.65 10.5 19 10.5ZM12.59 13.67C12.83 13.33 13.3 13.25 13.64 13.49C13.7717 13.5818 13.928 13.6318 14.0885 13.6336C14.249 13.6354 14.4063 13.5888 14.54 13.5C14.88 13.26 15.35 13.35 15.58 13.7C15.81 14.04 15.73 14.51 15.38 14.74C14.99 15 14.54 15.14 14.09 15.14C13.62 15.14 13.16 15 12.77 14.72C12.6075 14.6042 12.4974 14.4288 12.4636 14.2321C12.4299 14.0354 12.4753 13.8333 12.59 13.67ZM16 20.67C14.1 20.67 12.55 19.12 12.55 17.22C12.55 16.51 13.13 15.93 13.84 15.93H18.16C18.87 15.93 19.45 16.51 19.45 17.22C19.45 19.12 17.9 20.67 16 20.67ZM19.38 14.73C18.99 14.99 18.54 15.13 18.09 15.13C17.62 15.13 17.16 14.99 16.77 14.71C16.6892 14.6529 16.6205 14.5804 16.5678 14.4967C16.515 14.413 16.4793 14.3198 16.4625 14.2223C16.4458 14.1248 16.4485 14.0249 16.4703 13.9285C16.4922 13.832 16.5329 13.7408 16.59 13.66C16.6471 13.5792 16.7196 13.5105 16.8033 13.4578C16.887 13.405 16.9802 13.3693 17.0777 13.3525C17.1752 13.3358 17.2751 13.3385 17.3715 13.3603C17.468 13.3822 17.5592 13.4229 17.64 13.48C17.7717 13.5718 17.928 13.6218 18.0885 13.6236C18.249 13.6254 18.4063 13.5788 18.54 13.49C18.88 13.25 19.35 13.34 19.58 13.69C19.81 14.04 19.72 14.5 19.38 14.73Z" fill="#DB5551"/>
</svg>
