<svg width="24" height="25" viewBox="0 0 24 25" fill="none" xmlns="http://www.w3.org/2000/svg">
    <path d="M19 16.5V7C19 5.9 18.1 5 17 5H11.5" stroke="#8A92FF" stroke-width="1.5" stroke-linecap="round" stroke-linejoin="round"/>
    <path d="M14 2.5L11 5L14 7.5M5 8.5V18C5 19.1 5.9 20 7 20H12.5M19 22.5C19.7956 22.5 20.5587 22.1839 21.1213 21.6213C21.6839 21.0587 22 20.2956 22 19.5C22 18.7044 21.6839 17.9413 21.1213 17.3787C20.5587 16.8161 19.7956 16.5 19 16.5C18.2044 16.5 17.4413 16.8161 16.8787 17.3787C16.3161 17.9413 16 18.7044 16 19.5C16 20.2956 16.3161 21.0587 16.8787 21.6213C17.4413 22.1839 18.2044 22.5 19 22.5Z" stroke="#8A92FF" stroke-width="1.5" stroke-linecap="round" stroke-linejoin="round"/>
    <path d="M10 22.5L13 20L10 17.5M5 8.5C5.79565 8.5 6.55871 8.18393 7.12132 7.62132C7.68393 7.05871 8 6.29565 8 5.5C8 4.70435 7.68393 3.94129 7.12132 3.37868C6.55871 2.81607 5.79565 2.5 5 2.5C4.20435 2.5 3.44129 2.81607 2.87868 3.37868C2.31607 3.94129 2 4.70435 2 5.5C2 6.29565 2.31607 7.05871 2.87868 7.62132C3.44129 8.18393 4.20435 8.5 5 8.5Z" stroke="#8A92FF" stroke-width="1.5" stroke-linecap="round" stroke-linejoin="round"/>
</svg>
