<svg width="22" height="23" viewBox="0 0 22 23" fill="none" xmlns="http://www.w3.org/2000/svg">
    <path d="M17.85 12.25H15.15C12.49 12.25 11.25 11.01 11.25 8.35V4.65C11.25 1.99 12.49 0.750003 15.15 0.750003H17.85C20.51 0.750003 21.75 1.99 21.75 4.65V8.35C21.75 11.01 20.51 12.25 17.85 12.25ZM15.15 2.25C13.31 2.25 12.75 2.81 12.75 4.65V8.35C12.75 10.19 13.31 10.75 15.15 10.75H17.85C19.69 10.75 20.25 10.19 20.25 8.35V4.65C20.25 2.81 19.69 2.25 17.85 2.25H15.15ZM6.85 22.25H4.15C1.49 22.25 0.25 21.01 0.25 18.35V14.65C0.25 11.99 1.49 10.75 4.15 10.75H6.85C9.51 10.75 10.75 11.99 10.75 14.65V18.35C10.75 21.01 9.51 22.25 6.85 22.25ZM4.15 12.25C2.31 12.25 1.75 12.81 1.75 14.65V18.35C1.75 20.19 2.31 20.75 4.15 20.75H6.85C8.69 20.75 9.25 20.19 9.25 18.35V14.65C9.25 12.81 8.69 12.25 6.85 12.25H4.15ZM14 22.25C13.8678 22.2504 13.7379 22.2156 13.6236 22.1492C13.5093 22.0828 13.4147 21.9872 13.3496 21.8722C13.2844 21.7571 13.251 21.6268 13.2529 21.4947C13.2547 21.3625 13.2917 21.2332 13.36 21.12L14.41 19.37C14.62 19.01 15.08 18.9 15.44 19.11C15.8 19.32 15.91 19.78 15.7 20.14L15.43 20.59C18.19 19.94 20.26 17.46 20.26 14.5C20.26 14.09 20.6 13.75 21.01 13.75C21.42 13.75 21.76 14.09 21.76 14.5C21.75 18.77 18.27 22.25 14 22.25ZM1 9.25C0.59 9.25 0.25 8.91 0.25 8.5C0.25 4.23 3.73 0.750003 8 0.750003C8.13219 0.749614 8.26211 0.784405 8.37641 0.850806C8.49072 0.917207 8.5853 1.01283 8.65044 1.12785C8.71559 1.24287 8.74896 1.37316 8.74712 1.50534C8.74529 1.63752 8.70831 1.76683 8.64 1.88L7.59 3.64C7.38 3.99 6.92 4.11 6.56 3.89C6.47561 3.83911 6.40213 3.772 6.34382 3.69256C6.28551 3.61311 6.24352 3.52289 6.22027 3.42712C6.19703 3.33135 6.19299 3.23192 6.20839 3.13458C6.22379 3.03724 6.25833 2.94392 6.31 2.86L6.58 2.41C5.20652 2.73246 3.9822 3.50935 3.10552 4.61473C2.22884 5.7201 1.75119 7.08918 1.75 8.5C1.75 8.91 1.41 9.25 1 9.25Z" fill="#8A92FF"/>
</svg>
