<svg width="24" height="24" viewBox="0 0 24 24" fill="none" xmlns="http://www.w3.org/2000/svg">
    <path fill-rule="evenodd" clip-rule="evenodd" d="M10.6483 1.65786C11.0593 1.4209 11.5254 1.29617 11.9998 1.29617C12.4742 1.29617 12.9403 1.42089 13.3513 1.65781C13.3518 1.6581 13.3523 1.65839 13.3528 1.65868L20.3528 5.65868C20.7637 5.89594 21.105 6.23709 21.3425 6.6479C21.58 7.05872 21.7052 7.52476 21.7057 7.99927L21.7057 8V16L21.7057 16.0007C21.7052 16.4752 21.58 16.9413 21.3425 17.3521C21.105 17.7629 20.7637 18.1041 20.3528 18.3413L20.35 18.3429L13.3528 22.3413C13.3523 22.3416 13.3519 22.3418 13.3514 22.3421C12.9404 22.5791 12.4743 22.7038 11.9998 22.7038C11.5253 22.7038 11.0592 22.5791 10.6481 22.342C10.6477 22.3418 10.6473 22.3415 10.6469 22.3413L3.64961 18.3429L3.64689 18.3413C3.23595 18.1041 2.89462 17.7629 2.65716 17.3521C2.41969 16.9413 2.29443 16.4752 2.29395 16.0007V7.99927C2.29443 7.52476 2.41969 7.05872 2.65716 6.6479C2.89462 6.23709 3.23595 5.89594 3.64689 5.65868L3.64961 5.65711L10.6469 1.65868C10.6474 1.65841 10.6478 1.65813 10.6483 1.65786ZM11.9998 2.70793C11.7727 2.70793 11.5495 2.76773 11.3528 2.88131L11.35 2.88288L4.35277 6.88131C4.35237 6.88154 4.35197 6.88177 4.35157 6.882C4.15557 6.99544 3.99276 7.15834 3.87942 7.35441C3.7659 7.5508 3.706 7.77357 3.70571 8.00039V15.9996C3.706 16.2264 3.7659 16.4492 3.87942 16.6456C3.99274 16.8416 4.15552 17.0045 4.35148 17.1179C4.35191 17.1182 4.35234 17.1184 4.35277 17.1187L11.3528 21.1187C11.5495 21.2323 11.7727 21.2921 11.9998 21.2921C12.227 21.2921 12.4502 21.2323 12.6469 21.1187L12.6496 21.1171L19.6469 17.1187C19.6473 17.1184 19.6477 17.1182 19.6482 17.1179C19.8441 17.0045 20.0069 16.8416 20.1202 16.6456C20.2338 16.4491 20.2937 16.2262 20.2939 15.9993V8.00072C20.2937 7.77378 20.2338 7.55089 20.1202 7.35441C20.0069 7.15834 19.8441 6.99545 19.6481 6.882C19.6477 6.88177 19.6473 6.88154 19.6469 6.88131L12.6469 2.88131C12.4502 2.76773 12.227 2.70793 11.9998 2.70793Z" fill="#6D77FA"/>
    <path fill-rule="evenodd" clip-rule="evenodd" d="M6.88875 3.85686C7.08378 3.5193 7.51553 3.40377 7.85308 3.5988L11.9999 5.99476L16.1468 3.5988C16.4844 3.40377 16.9161 3.5193 17.1111 3.85686C17.3062 4.19442 17.1906 4.62616 16.8531 4.8212L12.3531 7.4212C12.1346 7.54744 11.8653 7.54744 11.6468 7.4212L7.14681 4.8212C6.80925 4.62616 6.69371 4.19442 6.88875 3.85686Z" fill="#6D77FA"/>
    <path fill-rule="evenodd" clip-rule="evenodd" d="M2.38875 11.6469C2.58378 11.3093 3.01553 11.1938 3.35308 11.3888L7.85308 13.9888C8.07137 14.1149 8.20583 14.3479 8.20583 14.6V19.79C8.20583 20.1798 7.88979 20.4959 7.49995 20.4959C7.1101 20.4959 6.79406 20.1798 6.79406 19.79V15.0074L2.64681 12.6112C2.30925 12.4162 2.19371 11.9844 2.38875 11.6469Z" fill="#6D77FA"/>
    <path fill-rule="evenodd" clip-rule="evenodd" d="M21.611 11.6469C21.8061 11.9844 21.6905 12.4162 21.353 12.6112L17.2057 15.0074V19.79C17.2057 20.1798 16.8897 20.4959 16.4998 20.4959C16.11 20.4959 15.7939 20.1798 15.7939 19.79V14.6C15.7939 14.3479 15.9284 14.1149 16.1467 13.9888L20.6467 11.3888C20.9842 11.1938 21.416 11.3093 21.611 11.6469Z" fill="#6D77FA"/>
    <path fill-rule="evenodd" clip-rule="evenodd" d="M2.65895 6.60655C2.85415 6.26909 3.28596 6.15377 3.62342 6.34898L12 11.1945L20.3765 6.34898C20.714 6.15377 21.1458 6.26909 21.341 6.60655C21.5362 6.944 21.4209 7.37581 21.0834 7.57101L12.3534 12.621C12.1348 12.7475 11.8652 12.7475 11.6465 12.621L2.91651 7.57101C2.57906 7.37581 2.46374 6.944 2.65895 6.60655Z" fill="#6D77FA"/>
    <path fill-rule="evenodd" clip-rule="evenodd" d="M11.9998 11.2941C12.3897 11.2941 12.7057 11.6102 12.7057 12V22.08C12.7057 22.4699 12.3897 22.7859 11.9998 22.7859C11.61 22.7859 11.2939 22.4699 11.2939 22.08V12C11.2939 11.6102 11.61 11.2941 11.9998 11.2941Z" fill="#6D77FA"/>
</svg>
